<?xml version="1.0" encoding="UTF-8" standalone="no"?>
<svg
   xmlns:dc="http://purl.org/dc/elements/1.1/"
   xmlns:cc="http://creativecommons.org/ns#"
   xmlns:rdf="http://www.w3.org/1999/02/22-rdf-syntax-ns#"
   xmlns:svg="http://www.w3.org/2000/svg"
   xmlns="http://www.w3.org/2000/svg"
   xmlns:sodipodi="http://sodipodi.sourceforge.net/DTD/sodipodi-0.dtd"
   xmlns:inkscape="http://www.inkscape.org/namespaces/inkscape"
   width="210mm"
   height="297mm"
   viewBox="0 0 210 297"
   version="1.1"
   id="svg8"
   inkscape:export-filename="/home/chad/Development/Godot-Games/002 Push/Target.png"
   inkscape:export-xdpi="32.830002"
   inkscape:export-ydpi="32.830002"
   inkscape:version="1.0.1 (3bc2e813f5, 2020-09-07)"
   sodipodi:docname="Target.svg">
  <style
     id="style7541" />
  <defs
     id="defs2" />
  <sodipodi:namedview
     id="base"
     pagecolor="#ffffff"
     bordercolor="#666666"
     borderopacity="1.0"
     inkscape:pageopacity="0.0"
     inkscape:pageshadow="2"
     inkscape:zoom="0.72432278"
     inkscape:cx="241.17424"
     inkscape:cy="519.3346"
     inkscape:document-units="mm"
     inkscape:current-layer="layer1"
     inkscape:document-rotation="0"
     showgrid="false"
     inkscape:object-nodes="true"
     inkscape:window-width="1920"
     inkscape:window-height="1011"
     inkscape:window-x="0"
     inkscape:window-y="40"
     inkscape:window-maximized="1" />
  <metadata
     id="metadata5">
    <rdf:RDF>
      <cc:Work
         rdf:about="">
        <dc:format>image/svg+xml</dc:format>
        <dc:type
           rdf:resource="http://purl.org/dc/dcmitype/StillImage" />
        <dc:title />
      </cc:Work>
    </rdf:RDF>
  </metadata>
  <g
     inkscape:label="Layer 1"
     inkscape:groupmode="layer"
     id="layer1">
    <circle
       style="fill:#aaaaaa;fill-opacity:1;stroke:#000000;stroke-width:0;stroke-miterlimit:4;stroke-dasharray:none"
       id="path17"
       cx="148.5667"
       cy="148.5667"
       r="160.74269"
       inkscape:export-xdpi="32.830002"
       inkscape:export-ydpi="32.830002" />
    <path
       id="path6673"
       style="fill:none;fill-rule:evenodd;stroke:#ffffff;stroke-width:10.63;stroke-linecap:round;stroke-miterlimit:4;stroke-dasharray:none;stroke-dashoffset:0;stroke-opacity:1"
       d="M 139.33169,5.6695618 A 143.19471,143.19469 0 0 0 5.6695642,139.33169 H 115.01224 a 34.817756,34.817756 0 0 1 24.31945,-24.31377 z m 18.46864,0 V 115.01121 a 34.817756,34.817756 0 0 1 24.3427,24.32048 H 291.46246 A 143.19471,143.19469 0 0 0 157.80033,5.6695618 Z M 5.6695642,157.80033 A 143.19471,143.19469 0 0 0 139.33169,291.46246 V 182.15233 a 34.817756,34.817756 0 0 1 -24.32978,-24.352 z m 176.4843158,0 a 34.817756,34.817756 0 0 1 -24.35355,24.35923 v 109.3029 A 143.19471,143.19469 0 0 0 291.46246,157.80033 Z"
       inkscape:export-xdpi="32.830002"
       inkscape:export-ydpi="32.830002" />
  </g>
</svg>
